<svg xmlns="http://www.w3.org/2000/svg" width="54" height="38" viewBox="0 0 54 38">
    <defs>
        <filter id="oxvlhm8apa">
            <feColorMatrix in="SourceGraphic" values="0 0 0 0 0.000000 0 0 0 0 0.568627 0 0 0 0 0.780392 0 0 0 1.000000 0"/>
        </filter>
    </defs>
    <g fill="none" fill-rule="evenodd">
        <g filter="url(#oxvlhm8apa)" transform="translate(-207 -1135)">
            <g>
                <path fill="#000" fill-rule="nonzero" d="M2.122 37.615h22.682c.431 0 .78-.35.78-.78 0-.431-.349-.78-.78-.78H2.122c-.31 0-.562-.252-.562-.562V32.78c0-.31.252-.562.562-.562h49.004c.31 0 .562.253.562.562v2.712c0 .31-.252.562-.562.562H28.444c-.43 0-.78.349-.78.78 0 .43.35.78.78.78h22.682c1.17 0 2.122-.952 2.122-2.122V32.78c0-1.17-.952-2.122-2.122-2.122h-1.212V16.302c0-.43-.349-.78-.78-.78-.43 0-.78.35-.78.78v11.069h-1.728V1.594h1.728v11.068c0 .43.35.78.78.78.431 0 .78-.35.78-.78V1.417c0-.763-.62-1.383-1.383-1.383H46.45c-.763 0-1.383.62-1.383 1.383v8.014h-4.142V4.456c.554-.21.95-.746.95-1.373v-1.58c0-.81-.66-1.47-1.47-1.47h-6.291c-.81 0-1.47.66-1.47 1.47v1.58c0 .627.396 1.162.95 1.373V9.43H30.29V4.456c.554-.21.95-.746.95-1.373v-1.58c0-.81-.659-1.47-1.469-1.47h-6.291c-.81 0-1.47.66-1.47 1.47v1.58c0 .627.396 1.162.95 1.373V9.43h-3.304V4.456c.554-.21.95-.746.95-1.373v-1.58c0-.81-.66-1.47-1.47-1.47h-6.29c-.81 0-1.47.66-1.47 1.47v1.58c0 .627.396 1.162.95 1.373V9.43H8.183V1.417c0-.763-.62-1.383-1.384-1.383H4.717c-.763 0-1.383.62-1.383 1.383v29.242H2.122C.952 30.66 0 31.611 0 32.781v2.712c0 1.17.952 2.122 2.122 2.122zM40.924 10.99h4.142v16.38h-4.142V10.99zm-6.72-9.397h6.11v1.398H34.204V1.594zm3.416 15.594c-.738-.608-1.594-.802-2.467-.573v-5.624h4.21v6.527c-.915.552-1.454-.091-1.743-.33zm1.744 2.012v8.17h-4.21v-9.073c.577-.348 1.096-.265 1.572.18.786.736 1.718.962 2.638.723zm-4.21-9.77V4.553h4.21v4.879h-4.21zm-4.865 1.56h3.304v16.38H30.29V10.99zm-6.72-9.396h6.11v1.398H23.57V1.594zm3.781 15.904c-.247-.18-1.213-1.304-2.831-.883v-5.624h4.21v6.527c-.524.316-.973.273-1.379-.02zm1.38 1.702v8.17h-4.21v-9.073c.963-.582 1.473.145 1.916.464.66.474 1.452.658 2.293.439zm-4.21-9.77V4.553h4.21v4.879h-4.21zm-4.865 1.56h3.304v16.38h-3.304V10.99zm-6.72-9.396h6.11v1.398H12.935V1.594zm3.588 15.744c-.735-.688-1.655-.978-2.638-.723v-5.624h4.21v6.527c-.56.337-1.08.28-1.572-.18zm1.572 1.862v8.17h-4.21v-9.073c.212-.128.455-.219.705-.219 1 .027 1.442 1.658 3.505 1.122zm-4.21-9.77V4.553h4.21v4.879h-4.21zm-5.702 1.56h4.142v16.38H8.183V10.99zm-3.29-9.396h1.73V27.37h-1.73V1.594zm0 27.337h43.461v1.728H4.894v-1.728z" transform="translate(207 1135)"/>
            </g>
        </g>
    </g>
</svg>
