<svg xmlns="http://www.w3.org/2000/svg" width="43" height="47" viewBox="0 0 43 47">
    <defs>
        <filter id="t30f58fbga">
            <feColorMatrix in="SourceGraphic" values="0 0 0 0 0.000000 0 0 0 0 0.568627 0 0 0 0 0.780392 0 0 0 1.000000 0"/>
        </filter>
    </defs>
    <g fill="none" fill-rule="evenodd">
        <g filter="url(#t30f58fbga)" transform="translate(-794 -1129)">
            <g fill="#000" fill-rule="nonzero">
                <path d="M40.453 11.483h-.467c-.276-.97-.662-1.9-1.152-2.78l.332-.332c.38-.38.589-.886.589-1.426 0-.54-.21-1.046-.59-1.426l-2.211-2.21c-.38-.382-.887-.593-1.428-.593-.541 0-1.048.21-1.426.591l-.332.332c-.88-.492-1.811-.879-2.78-1.155v-.467C30.988.905 30.083 0 28.97 0h-3.128c-1.113 0-2.018.905-2.018 2.017v.467c-.969.276-1.9.663-2.782 1.155l-.33-.33c-.38-.382-.887-.593-1.428-.593-.54 0-1.048.211-1.426.591L15.647 5.52c-.38.38-.589.886-.589 1.426 0 .54.21 1.046.59 1.426l.331.332c-.492.882-.878 1.813-1.153 2.78h-.468c-1.113 0-2.018.905-2.018 2.017v3.13c0 1.113.905 2.018 2.018 2.018h.468c.275.967.66 1.898 1.153 2.78l-.332.332c-.38.38-.589.886-.589 1.426 0 .54.21 1.047.59 1.426l2.21 2.21c.38.382.886.593 1.427.593.54 0 1.048-.21 1.426-.59l.332-.333c.883.493 1.814.879 2.782 1.153v.469c0 1.112.905 2.017 2.018 2.017h3.127c1.113 0 2.018-.905 2.018-2.017v-.469c.968-.274 1.899-.66 2.78-1.153l.33.33c.38.382.887.593 1.428.593.54 0 1.048-.21 1.425-.59l2.215-2.213c.38-.38.589-.886.589-1.426 0-.54-.21-1.046-.589-1.426l-.332-.332c.49-.88.876-1.81 1.152-2.78h.467c1.113 0 2.018-.905 2.018-2.017V13.5c0-1.113-.905-2.018-2.018-2.018zm-11.265 16.63c0 .119-.1.218-.217.218h-3.128c-.118 0-.218-.1-.218-.217V21.27c0-.376-.234-.712-.587-.843-2.418-.897-4.043-3.225-4.043-5.792 0-2.035 1.013-3.942 2.71-5.102.076-.052.143-.094.202-.13-.003.118-.011.23-.016.287-.007.092-.012.164-.012.235v4.248c0 1.95 1.523 3.578 3.468 3.707.04.002.08.002.12 0 1.942-.129 3.465-1.757 3.465-3.707V9.926c0-.071-.006-.143-.012-.233-.005-.059-.013-.17-.016-.288.059.035.126.077.202.129 1.696 1.16 2.71 3.067 2.71 5.102 0 2.567-1.624 4.894-4.041 5.792-.353.13-.587.467-.587.843v6.843zm11.483-11.482c0 .116-.102.217-.218.217h-1.166c-.42 0-.785.291-.877.702-.285 1.259-.779 2.45-1.468 3.54-.224.355-.173.819.125 1.116l.826.827c.054.054.062.119.062.153s-.008.1-.061.153l-2.217 2.214c-.05.051-.11.062-.151.062-.041 0-.1-.01-.153-.064l-.827-.826c-.298-.298-.763-.35-1.118-.124-.768.486-1.586.873-2.44 1.158V21.87c2.792-1.3 4.628-4.131 4.628-7.234 0-2.63-1.307-5.093-3.494-6.588-.336-.23-1.355-.926-2.246-.413-.876.504-.788 1.685-.751 2.19l.007.101v4.248c0 .985-.753 1.811-1.725 1.906-.974-.095-1.728-.921-1.728-1.906V9.933c0-.027.004-.064.007-.108.038-.505.126-1.685-.749-2.19-.891-.514-1.912.184-2.248.413-2.188 1.495-3.494 3.958-3.494 6.588 0 3.104 1.837 5.935 4.63 7.234v3.89c-.854-.286-1.672-.673-2.443-1.16-.148-.093-.315-.139-.48-.139-.233 0-.464.09-.637.264l-.829.828c-.05.051-.11.062-.15.062-.042 0-.101-.01-.154-.064L16.92 23.34c-.054-.053-.062-.119-.062-.153s.008-.1.062-.153l.827-.827c.297-.297.349-.761.124-1.117-.692-1.095-1.186-2.285-1.467-3.538-.092-.41-.457-.703-.878-.703h-1.168c-.116 0-.218-.101-.218-.217V13.5c0-.119.1-.218.218-.218h1.168c.421 0 .786-.292.878-.703.281-1.253.775-2.443 1.467-3.538.225-.356.173-.82-.124-1.117l-.827-.827c-.054-.054-.062-.119-.062-.153s.008-.1.062-.153l2.214-2.214c.05-.051.11-.062.151-.062.041 0 .1.01.153.064l.827.826c.298.298.762.35 1.117.125 1.094-.692 2.286-1.186 3.542-1.47.41-.093.702-.457.702-.878V2.017c0-.117.1-.217.217-.217h3.128c.118 0 .217.1.217.217v1.166c0 .421.292.786.702.878 1.257.284 2.448.779 3.538 1.47.356.225.82.174 1.118-.124l.829-.829c.05-.05.11-.062.15-.062.042 0 .102.011.154.064l2.215 2.212c.053.054.061.119.061.153s-.008.1-.061.153l-.827.827c-.298.298-.35.762-.124 1.117.688 1.09 1.182 2.28 1.467 3.54.093.41.457.701.878.701h1.165c.118 0 .218.1.218.218v3.13zM32.65 39.629c-.35.351-.35.921 0 1.273.177.175.407.263.637.263.23 0 .46-.088.637-.263l.002-.003c.351-.351.35-.92-.001-1.271-.352-.352-.923-.35-1.274 0z" transform="translate(794 1129)"/>
                <path d="M36.82 30.91l-7.145 3.67c-.606-.627-1.455-1.019-2.393-1.019h-4.896c-.274 0-.341-.022-.346-.023-.04-.02-.165-.139-.265-.233l-.045-.042c-3.96-3.729-7.307-3.493-11.111-1.991-.616.243-.628.243-1.246.27H8.266c-.315-.95-1.213-1.64-2.269-1.64h-3.6c-1.316 0-2.387 1.073-2.387 2.39v9.448c0 1.316 1.071 2.387 2.388 2.387h3.6c1.055 0 1.953-.687 2.268-1.638h2.025c.179 0 .179 0 .387.059l.286.08 9.315 2.491c.41.111.787.22 1.151.326 1.193.345 2.197.636 3.242.636 1.182 0 2.417-.371 4.043-1.454l.023-.016 1.778-1.268c.405-.29.499-.851.21-1.256-.288-.405-.85-.499-1.255-.21l-1.766 1.26c-2.359 1.568-3.36 1.278-5.774.579-.372-.108-.756-.22-1.185-.335l-9.315-2.492-.265-.073c-.34-.096-.467-.126-.875-.126H8.387v-7.347H9.4l.051-.003c.754-.032.966-.052 1.83-.394 3.341-1.318 5.92-1.475 9.217 1.628l.045.042c.563.53.888.745 1.844.745h4.896c.574 0 1.075.32 1.337.79l.008.015c.117.215.184.462.184.724 0 .842-.686 1.526-1.53 1.526h-7.933c-.497 0-.9.403-.9.9 0 .498.403.9.9.9h7.934c1.835 0 3.329-1.492 3.329-3.326 0-.249-.029-.492-.081-.725l7.112-3.653c.674-.346 1.594-.309 2.051.433.404.654.182 1.523-.517 2.02l-3.12 2.223c-.405.288-.5.85-.21 1.255.175.247.452.378.733.378.18 0 .363-.054.521-.167l3.12-2.222c1.483-1.057 1.914-2.963 1.005-4.433-.894-1.45-2.788-1.919-4.405-1.088zM6.587 41.74c0 .318-.27.587-.59.587h-3.6c-.318 0-.587-.269-.587-.587v-9.447c0-.325.264-.59.588-.59h3.6c.32 0 .59.27.59.59v9.447z" transform="translate(794 1129)"/>
            </g>
        </g>
    </g>
</svg>
